<svg width="19" height="19" viewBox="0 0 19 19" fill="none" xmlns="http://www.w3.org/2000/svg">
<path d="M11.0397 3.04321C11.0397 2.1449 9.95779 1.66825 9.27333 2.2649L5.45784 5.59316C5.34139 5.69497 5.19091 5.7513 5.03494 5.75149H1.91071C1.40396 5.75149 0.917963 5.94903 0.559635 6.30065C0.201307 6.65227 0 7.12917 0 7.62644V11.3739C0 11.8711 0.201307 12.348 0.559635 12.6997C0.917963 13.0513 1.40396 13.2488 1.91071 13.2488H5.03579C5.19176 13.249 5.34224 13.3053 5.45869 13.4071L9.27248 16.7346C9.95694 17.3321 11.0397 16.8554 11.0397 15.9563V3.04321ZM13.2026 7.18479C13.322 7.06775 13.4839 7.00201 13.6527 7.00201C13.8215 7.00201 13.9834 7.06775 14.1028 7.18479L15.5634 8.61809L17.024 7.18479C17.0823 7.12338 17.1527 7.07413 17.2308 7.03997C17.3089 7.00581 17.3933 6.98745 17.4788 6.98596C17.5643 6.98448 17.6492 6.99992 17.7285 7.03135C17.8078 7.06279 17.8799 7.10957 17.9404 7.16892C18.0008 7.22827 18.0485 7.29896 18.0806 7.37678C18.1126 7.45461 18.1283 7.53796 18.1268 7.62188C18.1253 7.7058 18.1066 7.78856 18.0718 7.86522C18.037 7.94188 17.9868 8.01088 17.9242 8.0681L16.4636 9.5014L17.9242 10.9347C17.9868 10.9919 18.037 11.0609 18.0718 11.1376C18.1066 11.2142 18.1253 11.297 18.1268 11.3809C18.1283 11.4648 18.1126 11.5482 18.0806 11.626C18.0485 11.7038 18.0008 11.7745 17.9404 11.8339C17.8799 11.8932 17.8078 11.94 17.7285 11.9714C17.6492 12.0029 17.5643 12.0183 17.4788 12.0168C17.3933 12.0154 17.3089 11.997 17.2308 11.9628C17.1527 11.9287 17.0823 11.8794 17.024 11.818L15.5634 10.3864L14.1028 11.8197C14.0445 11.8811 13.9741 11.9303 13.896 11.9645C13.8179 11.9987 13.7336 12.017 13.648 12.0185C13.5625 12.02 13.4776 12.0045 13.3983 11.9731C13.319 11.9417 13.2469 11.8949 13.1864 11.8355C13.126 11.7762 13.0783 11.7055 13.0463 11.6277C13.0142 11.5499 12.9985 11.4665 13 11.3826C13.0015 11.2987 13.0202 11.2159 13.055 11.1392C13.0898 11.0626 13.14 10.9936 13.2026 10.9364L14.6632 9.5014L13.2026 8.0681C13.0833 7.95091 13.0163 7.79207 13.0163 7.62644C13.0163 7.46082 13.0833 7.30197 13.2026 7.18479Z" fill="#0B0B0C"/>
</svg>
