<svg width="20" height="20" viewBox="0 0 20 20" fill="none" xmlns="http://www.w3.org/2000/svg">
<path d="M16.9569 3.35131C16.9513 3.34 16.9421 3.33114 16.9309 3.32631C15.6342 2.70162 14.2658 2.25616 12.8599 2.00109C12.8472 1.9986 12.834 2.0004 12.8222 2.00623C12.8105 2.01207 12.8008 2.02164 12.7945 2.03359C12.6082 2.3887 12.439 2.75345 12.2877 3.12645C10.7723 2.88491 9.23083 2.88491 7.7154 3.12645C7.56307 2.7525 7.39121 2.38766 7.2006 2.03359C7.19406 2.0219 7.18432 2.01255 7.17265 2.00675C7.16098 2.00095 7.14791 1.99898 7.13516 2.00109C5.72916 2.25563 4.36067 2.70112 3.06412 3.32635C3.05302 3.33129 3.04366 3.33972 3.03732 3.35049C0.444487 7.41614 -0.265788 11.3818 0.0826486 15.2984C0.0836288 15.308 0.0864375 15.3173 0.0909076 15.3257C0.0953777 15.3342 0.101418 15.3416 0.108669 15.3475C1.61845 16.5213 3.30716 17.4172 5.10273 17.9971C5.11538 18.0011 5.12888 18.0009 5.14143 17.9966C5.15397 17.9923 5.16496 17.9841 5.1729 17.973C5.55855 17.422 5.90027 16.8386 6.19457 16.2286C6.19862 16.2203 6.20093 16.2111 6.20135 16.2017C6.20177 16.1923 6.2003 16.183 6.19702 16.1742C6.19375 16.1655 6.18875 16.1576 6.18235 16.151C6.17595 16.1445 6.16831 16.1394 6.15991 16.1362C5.62106 15.9197 5.09938 15.6587 4.59977 15.3557C4.5907 15.3501 4.58308 15.3423 4.57758 15.3328C4.57208 15.3234 4.56888 15.3127 4.56826 15.3017C4.56764 15.2906 4.56962 15.2796 4.57401 15.2696C4.57841 15.2595 4.5851 15.2508 4.59348 15.2441C4.69861 15.1616 4.80191 15.0767 4.90331 14.9892C4.91221 14.9815 4.92297 14.9766 4.93438 14.975C4.9458 14.9733 4.95742 14.9751 4.96794 14.9801C8.24104 16.5485 11.7846 16.5485 15.019 14.9801C15.0295 14.9748 15.0413 14.9728 15.0529 14.9743C15.0644 14.9757 15.0754 14.9806 15.0844 14.9884C15.1859 15.0763 15.2895 15.1616 15.395 15.2441C15.4035 15.2507 15.4102 15.2594 15.4147 15.2694C15.4192 15.2794 15.4212 15.2904 15.4207 15.3015C15.4201 15.3125 15.417 15.3232 15.4116 15.3327C15.4061 15.3422 15.3986 15.3501 15.3895 15.3557C14.8911 15.6613 14.3689 15.9221 13.8286 16.1354C13.8203 16.1387 13.8126 16.1439 13.8063 16.1506C13.7999 16.1572 13.795 16.1652 13.7918 16.174C13.7886 16.1828 13.7872 16.1922 13.7877 16.2016C13.7881 16.2111 13.7905 16.2203 13.7946 16.2286C14.0939 16.8352 14.4351 17.4179 14.8155 17.972C14.8232 17.9834 14.8342 17.9919 14.8468 17.9964C14.8594 18.0009 14.873 18.0011 14.8857 17.997C16.6845 17.4191 18.3761 16.5231 19.8878 15.3475C19.8952 15.3419 19.9013 15.3347 19.9058 15.3263C19.9103 15.318 19.913 15.3088 19.9138 15.2992C20.331 10.7713 19.2155 6.83807 16.9569 3.35131ZM6.68339 12.9136C5.69794 12.9136 4.88597 11.9641 4.88597 10.7979C4.88597 9.63179 5.68219 8.68218 6.68339 8.68218C7.6924 8.68218 8.49652 9.64004 8.48077 10.7979C8.48077 11.9641 7.68451 12.9136 6.68339 12.9136ZM13.329 12.9136C12.3436 12.9136 11.5316 11.9641 11.5316 10.7979C11.5316 9.63179 12.3278 8.68218 13.329 8.68218C14.3381 8.68218 15.1422 9.64004 15.1264 10.7979C15.1264 11.9641 14.3381 12.9136 13.329 12.9136Z" fill="white"/>
</svg>
