<svg width="25" height="25" viewBox="0 0 25 25" fill="none" xmlns="http://www.w3.org/2000/svg">
<mask id="path-1-inside-1_65_1784" fill="white">
<path d="M12.5 25C14.9723 25 17.389 24.2669 19.4446 22.8934C21.5002 21.5199 23.1024 19.5676 24.0485 17.2835C24.9946 14.9995 25.2421 12.4861 24.7598 10.0614C24.2775 7.63661 23.087 5.40932 21.3388 3.66117C19.5907 1.91301 17.3634 0.722499 14.9386 0.240184C12.5139 -0.242132 10.0005 0.00540979 7.71646 0.951505C5.43238 1.8976 3.48015 3.49976 2.10663 5.55537C0.733112 7.61099 -4.67808e-07 10.0277 -5.46392e-07 12.5L4.08871 12.5C4.08871 10.8364 4.58203 9.21017 5.50627 7.82694C6.43052 6.44371 7.74418 5.36562 9.28114 4.72898C10.8181 4.09235 12.5093 3.92578 14.141 4.25033C15.7726 4.57489 17.2713 5.37598 18.4477 6.55232C19.624 7.72866 20.4251 9.22741 20.7497 10.859C21.0742 12.4907 20.9076 14.1819 20.271 15.7189C19.6344 17.2558 18.5563 18.5695 17.1731 19.4937C15.7898 20.418 14.1636 20.9113 12.5 20.9113L12.5 25Z"/>
</mask>
<path d="M12.5 25C14.9723 25 17.389 24.2669 19.4446 22.8934C21.5002 21.5199 23.1024 19.5676 24.0485 17.2835C24.9946 14.9995 25.2421 12.4861 24.7598 10.0614C24.2775 7.63661 23.087 5.40932 21.3388 3.66117C19.5907 1.91301 17.3634 0.722499 14.9386 0.240184C12.5139 -0.242132 10.0005 0.00540979 7.71646 0.951505C5.43238 1.8976 3.48015 3.49976 2.10663 5.55537C0.733112 7.61099 -4.67808e-07 10.0277 -5.46392e-07 12.5L4.08871 12.5C4.08871 10.8364 4.58203 9.21017 5.50627 7.82694C6.43052 6.44371 7.74418 5.36562 9.28114 4.72898C10.8181 4.09235 12.5093 3.92578 14.141 4.25033C15.7726 4.57489 17.2713 5.37598 18.4477 6.55232C19.624 7.72866 20.4251 9.22741 20.7497 10.859C21.0742 12.4907 20.9076 14.1819 20.271 15.7189C19.6344 17.2558 18.5563 18.5695 17.1731 19.4937C15.7898 20.418 14.1636 20.9113 12.5 20.9113L12.5 25Z" stroke="url(#paint0_linear_65_1784)" stroke-width="8.33333" mask="url(#path-1-inside-1_65_1784)"/>
<defs>
<linearGradient id="paint0_linear_65_1784" x1="25" y1="25" x2="7.45058e-07" y2="-1.83784e-06" gradientUnits="userSpaceOnUse">
<stop stop-color="#07DEDA"/>
<stop offset="1" stop-color="#07DEDA" stop-opacity="0"/>
</linearGradient>
</defs>
</svg>
