<svg width="20" height="20" viewBox="0 0 20 20" fill="none" xmlns="http://www.w3.org/2000/svg">
<path d="M6.28983 17.9999C13.8374 17.9999 17.9648 12.2295 17.9648 7.22578C17.9648 7.06189 17.9611 6.89868 17.9532 6.73637C18.7543 6.20181 19.4506 5.53475 20 4.77546C19.2648 5.07717 18.4735 5.28 17.6436 5.37176C18.4907 4.90278 19.1412 4.16122 19.4479 3.27721C18.6551 3.71097 17.777 4.02611 16.8424 4.19632C16.0936 3.46029 15.0274 3 13.847 3C11.5811 3 9.74346 4.69577 9.74346 6.78615C9.74346 7.08345 9.77954 7.3724 9.84987 7.64961C6.43954 7.49125 3.41534 5.98454 1.39175 3.69325C1.0395 4.25276 0.836223 4.90289 0.836223 5.5966C0.836223 6.91019 1.56066 8.07017 2.66217 8.74852C1.98898 8.72945 1.35665 8.5589 0.803811 8.27503C0.8032 8.29094 0.8032 8.30641 0.8032 8.32334C0.8032 10.1573 2.21757 11.6885 4.09538 12.0354C3.75047 12.122 3.38758 12.1686 3.01331 12.1686C2.74937 12.1686 2.49203 12.1447 2.24204 12.1003C2.76442 13.6049 4.27933 14.6998 6.07531 14.7305C4.67084 15.7463 2.90165 16.3514 0.978835 16.3514C0.648112 16.3514 0.321182 16.3339 0 16.2989C1.81604 17.3731 3.97246 18 6.28996 18" fill="white"/>
</svg>
